<svg xmlns="http://www.w3.org/2000/svg" viewBox="0 0 32 32">
  <defs>
    <linearGradient id="gold" x1="0%" y1="0%" x2="100%" y2="100%">
      <stop offset="0%" style="stop-color:#e6c565"/>
      <stop offset="50%" style="stop-color:#c9a962"/>
      <stop offset="100%" style="stop-color:#a8893d"/>
    </linearGradient>
    <linearGradient id="bg" x1="0%" y1="0%" x2="100%" y2="100%">
      <stop offset="0%" style="stop-color:#1a1625"/>
      <stop offset="100%" style="stop-color:#0f0d15"/>
    </linearGradient>
  </defs>
  <rect width="32" height="32" rx="7" fill="url(#bg)"/>
  <!-- Stylized G with elegant curves -->
  <path d="M16 5C9.9 5 5 9.9 5 16s4.9 11 11 11c1.8 0 3.5-.4 5-1.2v-6.3h-5v2.5h2.5v2.2c-.8.3-1.6.5-2.5.5-4.1 0-7.5-3.4-7.5-7.7s3.4-7.5 7.5-7.5c2.1 0 4 .9 5.4 2.3l1.8-1.8C21.3 6.7 18.8 5 16 5z" fill="url(#gold)"/>
</svg>
